<svg width="20" height="20" viewBox="0 0 20 20" fill="none" xmlns="http://www.w3.org/2000/svg">
<path d="M11 5C11 4.44772 10.5523 4 10 4C9.44771 4 9 4.44772 9 5H11ZM10 10H9C9 10.5523 9.44771 11 10 11V10ZM15 11C15.5523 11 16 10.5523 16 10C16 9.44771 15.5523 9 15 9V11ZM10 18C5.58172 18 2 14.4183 2 10H0C0 15.5228 4.47715 20 10 20V18ZM2 10C2 5.58172 5.58172 2 10 2V0C4.47715 0 0 4.47715 0 10H2ZM10 2C14.4183 2 18 5.58172 18 10H20C20 4.47715 15.5228 0 10 0V2ZM18 10C18 14.4183 14.4183 18 10 18V20C15.5228 20 20 15.5228 20 10H18ZM9 5V10H11V5H9ZM10 11H15V9H10V11Z" fill="black"/>
</svg>
