<svg width="22" height="22" viewBox="0 0 22 22" fill="none" xmlns="http://www.w3.org/2000/svg">
<path d="M18.9839 7.71936L18.4977 8.59324L18.4977 8.59324L18.9839 7.71936ZM19.3501 7.92309L19.8362 7.04921L19.8362 7.04921L19.3501 7.92309ZM20.9946 10.7123L21.9946 10.71V10.71L20.9946 10.7123ZM20.9959 11.2744L19.9959 11.2767V11.2767L20.9959 11.2744ZM19.3469 14.0806L19.8316 14.9552V14.9552L19.3469 14.0806ZM18.9853 14.2809L18.5006 13.4063V13.4063L18.9853 14.2809ZM17.8345 16.2726L18.8343 16.2558L17.8345 16.2726ZM17.8416 16.6972L16.8418 16.7141L17.8416 16.6972ZM16.2484 19.5187L16.7504 20.3836H16.7504L16.2484 19.5187ZM15.7607 19.8017L15.2588 18.9368H15.2588L15.7607 19.8017ZM12.5074 19.7776L11.9927 20.635L11.9927 20.635L12.5074 19.7776ZM12.1514 19.5638L12.6661 18.7065L12.6661 18.7065L12.1514 19.5638ZM9.84942 19.5625L9.3357 18.7045L9.84942 19.5625ZM9.4956 19.7744L10.0093 20.6323L9.4956 19.7744ZM6.25395 19.8016L5.75467 20.668L6.25395 19.8016ZM5.76025 19.5171L6.25953 18.6507L5.76025 19.5171ZM4.15868 16.6905L5.15854 16.7074L4.15868 16.6905ZM4.16556 16.283L3.16571 16.2661L4.16556 16.283ZM3.00824 14.2761L2.52209 15.15H2.52209L3.00824 14.2761ZM2.6499 14.0768L3.13604 13.2029H3.13604L2.6499 14.0768ZM1.00566 11.2877L2.00566 11.2854L1.00566 11.2877ZM1.00439 10.7256L0.00439066 10.7279L1.00439 10.7256ZM2.65331 7.91936L2.1686 7.04469L2.65331 7.91936ZM3.01488 7.719L3.49959 8.59367L3.01488 7.719ZM4.16534 5.7274L3.16548 5.74422L4.16534 5.7274ZM4.1582 5.30274L5.15806 5.28591V5.28591L4.1582 5.30274ZM5.75146 2.48128L5.24949 1.61639V1.61639L5.75146 2.48128ZM6.23912 2.19824L6.74109 3.06313L6.23912 2.19824ZM9.49267 2.22229L10.0074 1.36493V1.36493L9.49267 2.22229ZM9.84875 2.43606L9.33403 3.29342L9.84875 2.43606ZM12.1504 2.43745L11.6367 1.57949V1.57949L12.1504 2.43745ZM12.5042 2.22559L13.0179 3.08355V3.08354L12.5042 2.22559ZM15.7456 2.19837L15.2463 3.0648L15.7456 2.19837ZM16.2394 2.48293L16.7387 1.61649L16.7387 1.61649L16.2394 2.48293ZM17.8415 5.30933L16.8416 5.29251V5.29251L17.8415 5.30933ZM17.8345 5.72633L18.8343 5.74315V5.74315L17.8345 5.72633ZM17.8332 5.85647L18.8331 5.84119L17.8332 5.85647ZM18.134 6.88326L18.9999 6.38306L18.134 6.88326ZM18.0698 6.77014L17.1883 7.24228L18.0698 6.77014ZM17.346 3.23718L18.0921 2.57138V2.57138L17.346 3.23718ZM17.7627 3.97278L18.7172 3.67475L17.7627 3.97278ZM13.6981 1.62781L13.9171 2.60353L13.6981 1.62781ZM14.5415 1.62085L14.3388 2.6001V2.6001L14.5415 1.62085ZM11.1304 2.75427L11.0983 1.75479L11.1304 2.75427ZM12.0381 2.50325L12.524 3.37724L12.0381 2.50325ZM9.96081 2.50218L9.47392 3.37564L9.96081 2.50218ZM10.8706 2.75427L10.9027 1.75479L10.8706 2.75427ZM7.44695 1.61463L7.65141 2.5935L7.44695 1.61463ZM8.29394 1.62085L8.07502 2.59659L8.29394 1.62085ZM4.23677 3.97034L5.1916 4.26748L4.23677 3.97034ZM4.65136 3.23625L3.90379 2.57207L4.65136 3.23625ZM3.8662 6.88241L4.73212 7.38261L3.8662 6.88241ZM3.92941 6.771L3.04811 6.29844L3.92941 6.771ZM4.16668 5.85551L5.16657 5.87031L4.16668 5.85551ZM3.12626 7.65601L2.61411 6.79711L3.12626 7.65601ZM3.80126 6.9928L2.95161 6.46546H2.95161L3.80126 6.9928ZM1.10281 9.38721L2.05273 9.69972L1.10281 9.38721ZM1.53222 8.65678L2.26755 9.3345H2.26755L1.53222 8.65678ZM1.53661 13.3427L0.801437 14.0205H0.801437L1.53661 13.3427ZM1.10882 12.6171L0.15975 12.9322L1.10882 12.6171ZM3.86796 15.1257L4.73584 14.629H4.73584L3.86796 15.1257ZM3.79785 15.0056L2.94753 15.5319L3.79785 15.0056ZM3.12926 14.3448L2.6134 15.2014L3.12926 14.3448ZM4.16669 16.1455L3.16683 16.1626L4.16669 16.1455ZM3.9354 15.2455L4.81964 14.7785L3.9354 15.2455ZM4.65429 18.7627L3.90815 19.4285L4.65429 18.7627ZM4.23726 18.0271L5.19182 17.7291L4.23726 18.0271ZM8.30175 20.3721L8.52079 21.3478L8.30175 20.3721ZM7.45841 20.3791L7.25573 21.3583L7.45841 20.3791ZM10.8691 19.2457L10.8371 18.2462L10.8371 18.2462L10.8691 19.2457ZM9.96161 19.4967L10.4475 20.3707L9.96161 19.4967ZM12.0391 19.4977L12.5259 18.6242L12.0391 19.4977ZM11.1297 19.2457L11.1619 18.2462H11.1619L11.1297 19.2457ZM14.5527 20.3853L14.7572 21.3642L14.5527 20.3853ZM13.7063 20.379L13.9252 19.4032L13.7063 20.379ZM17.7632 18.0296L18.718 18.3268L17.7632 18.0296ZM17.3486 18.7637L18.0961 19.4279L17.3486 18.7637ZM18.1335 15.1176L17.2676 14.6174L18.1335 15.1176ZM18.0703 15.229L17.189 14.7564L18.0703 15.229ZM17.8332 16.1445L16.8333 16.1297L17.8332 16.1445ZM18.8735 14.344L19.3857 15.2029L18.8735 14.344ZM18.1988 15.0071L19.0484 15.5344L18.1988 15.0071ZM20.897 12.6128L21.8469 12.9253L20.897 12.6128ZM20.4678 13.3431L19.7325 12.6654L20.4678 13.3431ZM20.4632 8.65725L21.1984 7.97937V7.97937L20.4632 8.65725ZM20.8911 9.38281L19.942 9.69788L20.8911 9.38281ZM18.8711 7.6554L19.385 6.79753L18.8711 7.6554ZM18.2 6.99498L17.3506 7.52264L18.2 6.99498ZM11 14C9.34314 14 7.99999 12.6569 7.99999 11H5.99999C5.99999 13.7614 8.23857 16 11 16V14ZM7.99999 11C7.99999 9.34315 9.34314 8 11 8V6C8.23857 6 5.99999 8.23858 5.99999 11H7.99999ZM11 8C12.6568 8 14 9.34315 14 11H16C16 8.23858 13.7614 6 11 6V8ZM14 11C14 12.6569 12.6568 14 11 14V16C13.7614 16 16 13.7614 16 11H14ZM18.4977 8.59324L18.864 8.79697L19.8362 7.04921L19.47 6.84548L18.4977 8.59324ZM19.9946 10.7146L19.9959 11.2767L21.9959 11.2721L21.9946 10.71L19.9946 10.7146ZM18.8622 13.2059L18.5006 13.4063L19.4701 15.1556L19.8316 14.9552L18.8622 13.2059ZM16.8346 16.2894L16.8418 16.7141L18.8415 16.6804L18.8343 16.2558L16.8346 16.2894ZM15.7464 18.6538L15.2588 18.9368L16.2627 20.6666L16.7504 20.3836L15.7464 18.6538ZM13.0222 18.9203L12.6661 18.7065L11.6366 20.4212L11.9927 20.635L13.0222 18.9203ZM9.3357 18.7045L8.98188 18.9164L10.0093 20.6323L10.3631 20.4205L9.3357 18.7045ZM6.75324 18.9352L6.25953 18.6507L5.26096 20.3835L5.75467 20.668L6.75324 18.9352ZM5.15854 16.7074L5.16542 16.2998L3.16571 16.2661L3.15883 16.6736L5.15854 16.7074ZM3.49438 13.4023L3.13604 13.2029L2.16375 14.9507L2.52209 15.15L3.49438 13.4023ZM2.00566 11.2854L2.00439 10.7233L0.00439066 10.7279L0.00566745 11.29L2.00566 11.2854ZM3.13803 8.79404L3.49959 8.59367L2.53016 6.84432L2.1686 7.04469L3.13803 8.79404ZM5.1652 5.71057L5.15806 5.28591L3.15834 5.31956L3.16548 5.74422L5.1652 5.71057ZM6.25343 3.34616L6.74109 3.06313L5.73715 1.33336L5.24949 1.61639L6.25343 3.34616ZM8.97795 3.07965L9.33403 3.29342L10.3635 1.5787L10.0074 1.36493L8.97795 3.07965ZM12.6641 3.29541L13.0179 3.08355L11.9905 1.36763L11.6367 1.57949L12.6641 3.29541ZM15.2463 3.0648L15.7401 3.34936L16.7387 1.61649L16.2449 1.33193L15.2463 3.0648ZM16.8416 5.29251L16.8346 5.70951L18.8343 5.74315L18.8413 5.32615L16.8416 5.29251ZM16.8346 5.70951C16.8337 5.76504 16.8325 5.81922 16.8333 5.87176L18.8331 5.84119C18.8329 5.82957 18.8331 5.81794 18.8343 5.74315L16.8346 5.70951ZM18.9999 6.38306C18.9642 6.32124 18.9572 6.30889 18.9513 6.29801L17.1883 7.24228C17.2128 7.28797 17.2385 7.33235 17.2681 7.38345L18.9999 6.38306ZM16.8333 5.87176C16.8406 6.35025 16.9622 6.82017 17.1883 7.24228L18.9513 6.29801C18.8761 6.15747 18.8355 6.00088 18.8331 5.84119L16.8333 5.87176ZM15.7401 3.34936C16.3948 3.7266 16.5182 3.81145 16.5999 3.90299L18.0921 2.57138C17.7448 2.18211 17.273 1.92441 16.7387 1.61649L15.7401 3.34936ZM18.8413 5.32615C18.8517 4.70881 18.8727 4.1726 18.7172 3.67475L16.8081 4.27081C16.8447 4.38807 16.8543 4.53778 16.8416 5.29251L18.8413 5.32615ZM16.5999 3.90298C16.6945 4.009 16.7655 4.13436 16.8081 4.27081L18.7172 3.67475C18.5899 3.26703 18.3771 2.89071 18.0921 2.57138L16.5999 3.90298ZM13.0179 3.08354C13.6645 2.69642 13.7977 2.63033 13.9171 2.60353L13.479 0.652093C12.9712 0.766096 12.518 1.05175 11.9905 1.36763L13.0179 3.08354ZM16.2449 1.33193C15.7113 1.02447 15.2536 0.747047 14.7442 0.641605L14.3388 2.6001C14.4588 2.62494 14.5942 2.689 15.2463 3.0648L16.2449 1.33193ZM13.9171 2.60353C14.0556 2.57244 14.1994 2.57123 14.3388 2.6001L14.7442 0.641605C14.3267 0.555211 13.8954 0.558614 13.479 0.652093L13.9171 2.60353ZM11.0005 3.7553C11.0595 3.7553 11.1107 3.75542 11.1625 3.75376L11.0983 1.75479C11.086 1.75519 11.0719 1.7553 11.0005 1.7553V3.7553ZM11.6367 1.57949C11.5799 1.61348 11.5644 1.62246 11.5521 1.62925L12.524 3.37724C12.5679 3.35286 12.609 3.32842 12.6641 3.29541L11.6367 1.57949ZM11.1625 3.75376C11.64 3.73843 12.1067 3.60926 12.524 3.37724L11.5521 1.62925C11.4129 1.70667 11.2573 1.74969 11.0983 1.75479L11.1625 3.75376ZM9.33403 3.29342C9.38389 3.32336 9.42835 3.35024 9.47392 3.37564L10.4477 1.62871C10.4371 1.6228 10.4257 1.61608 10.3635 1.5787L9.33403 3.29342ZM11.0005 1.7553C10.9289 1.7553 10.9151 1.75519 10.9027 1.75479L10.8384 3.75376C10.8904 3.75543 10.9413 3.7553 11.0005 3.7553V1.7553ZM9.47392 3.37564C9.89204 3.60871 10.3601 3.73837 10.8384 3.75376L10.9027 1.75479C10.7432 1.74966 10.587 1.70636 10.4477 1.62871L9.47392 3.37564ZM6.74109 3.06313C7.39531 2.68343 7.53101 2.61865 7.65141 2.5935L7.24249 0.63575C6.73108 0.742569 6.27199 1.02295 5.73715 1.33336L6.74109 3.06313ZM10.0074 1.36493C9.47756 1.04685 9.02273 0.759507 8.51286 0.645109L8.07502 2.59659C8.19493 2.6235 8.32906 2.69009 8.97795 3.07965L10.0074 1.36493ZM7.65141 2.5935C7.79124 2.56429 7.93583 2.56537 8.07502 2.59659L8.51286 0.645109C8.0949 0.551334 7.66159 0.548213 7.24249 0.63575L7.65141 2.5935ZM5.15806 5.28591C5.14541 4.53448 5.15515 4.38461 5.1916 4.26748L3.28193 3.67319C3.12747 4.16954 3.14797 4.70352 3.15834 5.31956L5.15806 5.28591ZM5.24949 1.61639C4.71705 1.92542 4.24913 2.18338 3.90379 2.57207L5.39893 3.90043C5.48032 3.80882 5.60299 3.72367 6.25343 3.34616L5.24949 1.61639ZM5.1916 4.26748C5.23378 4.13193 5.30446 4.00677 5.39893 3.90043L3.90379 2.57207C3.62074 2.89066 3.40865 3.26602 3.28193 3.67319L5.1916 4.26748ZM4.73212 7.38261C4.76123 7.33221 4.78657 7.28857 4.81071 7.24356L3.04811 6.29844C3.04235 6.30917 3.03549 6.32128 3.00029 6.38222L4.73212 7.38261ZM3.16548 5.74422C3.16675 5.8196 3.16695 5.82948 3.16679 5.8407L5.16657 5.87031C5.16734 5.81828 5.1661 5.76381 5.1652 5.71057L3.16548 5.74422ZM4.81071 7.24356C5.03729 6.82099 5.15946 6.35011 5.16657 5.87031L3.16679 5.8407C3.16442 6.00039 3.12375 6.15736 3.04811 6.29844L4.81071 7.24356ZM3.49959 8.59367C3.55301 8.56406 3.59519 8.54068 3.6384 8.51491L2.61411 6.79711C2.60296 6.80376 2.58932 6.81154 2.53016 6.84432L3.49959 8.59367ZM3.00029 6.38222C2.96529 6.44281 2.9581 6.45501 2.95161 6.46546L4.65092 7.52014C4.6778 7.47682 4.70275 7.43344 4.73212 7.38261L3.00029 6.38222ZM3.6384 8.51491C4.05074 8.26903 4.39791 7.92779 4.65092 7.52014L2.95161 6.46546C2.86717 6.60151 2.75138 6.71526 2.61411 6.79711L3.6384 8.51491ZM2.00439 10.7233C2.00267 9.9661 2.0143 9.81652 2.05273 9.69972L0.152899 9.0747C-0.0104773 9.57129 0.00298619 10.1095 0.00439066 10.7279L2.00439 10.7233ZM2.1686 7.04469C1.62748 7.34456 1.15114 7.59471 0.796895 7.97907L2.26755 9.3345C2.35093 9.24402 2.47602 9.1609 3.13803 8.79404L2.1686 7.04469ZM2.05273 9.69972C2.09722 9.56449 2.17045 9.43984 2.26755 9.3345L0.796895 7.97907C0.506841 8.29378 0.286933 8.66729 0.152899 9.0747L2.05273 9.69972ZM3.13604 13.2029C2.47883 12.8373 2.35467 12.7547 2.27179 12.6648L0.801437 14.0205C1.15371 14.4026 1.62695 14.652 2.16375 14.9507L3.13604 13.2029ZM0.00566745 11.29C0.00706166 11.9038 -0.00401688 12.4389 0.15975 12.9322L2.05789 12.302C2.0194 12.1861 2.00737 12.038 2.00566 11.2854L0.00566745 11.29ZM2.27179 12.6648C2.17548 12.5603 2.10259 12.4367 2.05789 12.302L0.15975 12.9322C0.29398 13.3365 0.51277 13.7075 0.801437 14.0205L2.27179 12.6648ZM4.73584 14.629C4.70443 14.5741 4.67734 14.5265 4.64816 14.4793L2.94753 15.5319C2.95449 15.5431 2.9621 15.5562 3.00008 15.6225L4.73584 14.629ZM2.52209 15.15C2.5896 15.1876 2.60225 15.1947 2.6134 15.2014L3.64512 13.4881C3.59745 13.4594 3.54884 13.4325 3.49438 13.4023L2.52209 15.15ZM4.64816 14.4793C4.39753 14.0744 4.05409 13.7344 3.64512 13.4881L2.6134 15.2014C2.74906 15.2831 2.86358 15.3963 2.94753 15.5319L4.64816 14.4793ZM5.16542 16.2998C5.16649 16.2363 5.16747 16.183 5.16654 16.1285L3.16683 16.1626C3.16706 16.1759 3.16696 16.1917 3.16571 16.2661L5.16542 16.2998ZM3.00008 15.6225C3.03981 15.6919 3.04549 15.7018 3.05117 15.7126L4.81964 14.7785C4.79363 14.7292 4.76464 14.6793 4.73584 14.629L3.00008 15.6225ZM5.16654 16.1285C5.15851 15.6574 5.0396 15.1949 4.81964 14.7785L3.05117 15.7126C3.12455 15.8515 3.16416 16.0057 3.16683 16.1626L5.16654 16.1285ZM6.25953 18.6507C5.6059 18.274 5.48229 18.1887 5.40043 18.0969L3.90815 19.4285C4.25534 19.8176 4.72556 20.075 5.26096 20.3835L6.25953 18.6507ZM3.15883 16.6736C3.14841 17.2906 3.12723 17.8272 3.28269 18.3251L5.19182 17.7291C5.15524 17.612 5.14579 17.4625 5.15854 16.7074L3.15883 16.6736ZM5.40043 18.0969C5.30527 17.9903 5.23417 17.8648 5.19182 17.7291L3.28269 18.3251C3.41023 18.7337 3.62374 19.1098 3.90815 19.4285L5.40043 18.0969ZM8.98188 18.9164C8.33544 19.3035 8.20212 19.3696 8.08271 19.3964L8.52079 21.3478C9.0286 21.2338 9.48166 20.9483 10.0093 20.6323L8.98188 18.9164ZM5.75467 20.668C6.28858 20.9757 6.74637 21.2529 7.25573 21.3583L7.66108 19.3999C7.54096 19.375 7.40503 19.3107 6.75324 18.9352L5.75467 20.668ZM8.08271 19.3964C7.94408 19.4275 7.80039 19.4287 7.66108 19.3999L7.25573 21.3583C7.67331 21.4448 8.10454 21.4412 8.52079 21.3478L8.08271 19.3964ZM10.9991 18.2446C10.94 18.2446 10.8889 18.2445 10.8371 18.2462L10.9012 20.2451C10.9136 20.2447 10.9277 20.2446 10.9991 20.2446V18.2446ZM10.3631 20.4205C10.4211 20.3858 10.4358 20.3773 10.4475 20.3707L9.47568 18.6227C9.43138 18.6473 9.3897 18.6722 9.3357 18.7045L10.3631 20.4205ZM10.8371 18.2462C10.3595 18.2615 9.89288 18.3908 9.47568 18.6227L10.4475 20.3707C10.5869 20.2932 10.7423 20.2502 10.9012 20.2451L10.8371 18.2462ZM12.6661 18.7065C12.6143 18.6754 12.571 18.6493 12.5259 18.6242L11.5522 20.3711C11.5633 20.3773 11.5763 20.385 11.6366 20.4212L12.6661 18.7065ZM10.9991 20.2446C11.0707 20.2446 11.0852 20.2447 11.0976 20.2451L11.1619 18.2462C11.11 18.2445 11.0582 18.2446 10.9991 18.2446V20.2446ZM12.5259 18.6242C12.1079 18.3912 11.6403 18.2616 11.1619 18.2462L11.0976 20.2451C11.257 20.2503 11.4128 20.2934 11.5522 20.3711L12.5259 18.6242ZM15.2588 18.9368C14.6047 19.3164 14.4687 19.3813 14.3483 19.4065L14.7572 21.3642C15.2686 21.2574 15.7277 20.9771 16.2627 20.6666L15.2588 18.9368ZM11.9927 20.635C12.5228 20.9532 12.9775 21.2403 13.4873 21.3547L13.9252 19.4032C13.8052 19.3763 13.6708 19.3097 13.0222 18.9203L11.9927 20.635ZM14.3483 19.4065C14.2088 19.4356 14.0647 19.4345 13.9252 19.4032L13.4873 21.3547C13.905 21.4484 14.3378 21.4518 14.7572 21.3642L14.3483 19.4065ZM16.8418 16.7141C16.8544 17.4658 16.8448 17.6154 16.8083 17.7325L18.718 18.3268C18.8725 17.8303 18.8518 17.2961 18.8415 16.6804L16.8418 16.7141ZM16.7504 20.3836C17.2828 20.0746 17.7508 19.8166 18.0961 19.4279L16.601 18.0995C16.5196 18.1911 16.3969 18.2763 15.7464 18.6538L16.7504 20.3836ZM16.8083 17.7325C16.7662 17.8679 16.6955 17.9931 16.601 18.0995L18.0961 19.4279C18.3791 19.1093 18.5913 18.734 18.718 18.3268L16.8083 17.7325ZM17.2676 14.6174C17.2385 14.6677 17.2131 14.7114 17.189 14.7564L18.9516 15.7015C18.9574 15.6908 18.9642 15.6787 18.9994 15.6177L17.2676 14.6174ZM18.8343 16.2558C18.8331 16.1814 18.8329 16.1707 18.8331 16.1593L16.8333 16.1297C16.8325 16.1816 16.8337 16.2351 16.8346 16.2894L18.8343 16.2558ZM17.189 14.7564C16.9623 15.1793 16.8404 15.6502 16.8333 16.1297L18.8331 16.1593C18.8354 15.9993 18.8761 15.8423 18.9516 15.7015L17.189 14.7564ZM18.5006 13.4063C18.4505 13.434 18.4055 13.4588 18.3614 13.4851L19.3857 15.2029C19.396 15.1968 19.4076 15.1902 19.4701 15.1556L18.5006 13.4063ZM18.9994 15.6177C19.0317 15.5619 19.041 15.5464 19.0484 15.5344L17.3491 14.4797C17.3232 14.5215 17.2997 14.5618 17.2676 14.6174L18.9994 15.6177ZM18.3614 13.4851C17.9489 13.7311 17.602 14.0722 17.3491 14.4797L19.0484 15.5344C19.1329 15.3982 19.2485 15.2847 19.3857 15.2029L18.3614 13.4851ZM19.9959 11.2767C19.9976 12.0326 19.9856 12.1832 19.9471 12.3002L21.8469 12.9253C22.0102 12.429 21.9973 11.8918 21.9959 11.2721L19.9959 11.2767ZM19.8316 14.9552C20.373 14.6553 20.849 14.4052 21.2032 14.0209L19.7325 12.6654C19.6491 12.7559 19.524 12.8391 18.8622 13.2059L19.8316 14.9552ZM19.9471 12.3002C19.9024 12.436 19.8292 12.5605 19.7325 12.6654L21.2032 14.0209C21.4936 13.7058 21.713 13.3322 21.8469 12.9253L19.9471 12.3002ZM18.864 8.79697C19.5209 9.16242 19.6451 9.24518 19.728 9.33512L21.1984 7.97937C20.8461 7.59738 20.3733 7.348 19.8362 7.04921L18.864 8.79697ZM21.9946 10.71C21.9932 10.0953 22.0039 9.56085 21.8402 9.06775L19.942 9.69788C19.9806 9.81402 19.9929 9.96294 19.9946 10.7146L21.9946 10.71ZM19.728 9.33512C19.8245 9.43976 19.8974 9.56347 19.942 9.69788L21.8402 9.06775C21.7059 8.66317 21.4869 8.29225 21.1984 7.97937L19.728 9.33512ZM19.47 6.84548C19.4086 6.81134 19.3958 6.804 19.385 6.79753L18.3572 8.51326C18.4013 8.5397 18.4454 8.56411 18.4977 8.59324L19.47 6.84548ZM17.2681 7.38345C17.3012 7.44088 17.3246 7.48085 17.3506 7.52264L19.0495 6.46731C19.0416 6.45469 19.0319 6.43842 18.9999 6.38306L17.2681 7.38345ZM19.385 6.79753C19.2486 6.71584 19.1336 6.60267 19.0495 6.46731L17.3506 7.52264C17.6024 7.9281 17.9474 8.26779 18.3572 8.51326L19.385 6.79753Z" fill="#CCCCCC"/>
</svg>
