<svg width="17" height="19" viewBox="0 0 17 19" fill="none" xmlns="http://www.w3.org/2000/svg">
<path d="M11 5C10.4477 5 10 5.44772 10 6C10 6.55228 10.4477 7 11 7V5ZM16 6V7C16.5523 7 17 6.55228 17 6H16ZM17 1C17 0.447715 16.5523 0 16 0C15.4477 0 15 0.447715 15 1H17ZM16.5479 14.9018C16.8487 14.4386 16.7171 13.8192 16.2539 13.5184C15.7907 13.2177 15.1714 13.3493 14.8706 13.8125L16.5479 14.9018ZM6.8081 17.6939L7.08206 16.7322H7.08206L6.8081 17.6939ZM2.46687 5.38281L1.65023 4.80567H1.65023L2.46687 5.38281ZM6.48799 2.4046L6.174 1.45518L6.174 1.45518L6.48799 2.4046ZM14.706 5.94506C15.026 6.39524 15.6503 6.50083 16.1004 6.1809C16.5506 5.86098 16.6562 5.23668 16.3363 4.7865L14.706 5.94506ZM11 7H16V5H11V7ZM17 6V1H15V6H17ZM14.8706 13.8125C14.0553 15.068 12.8589 16.0291 11.4571 16.5546L12.1591 18.4273C13.9614 17.7517 15.4996 16.516 16.5479 14.9018L14.8706 13.8125ZM11.4571 16.5546C10.0553 17.0801 8.52185 17.1423 7.08206 16.7322L6.53415 18.6556C8.38527 19.183 10.3568 19.1029 12.1591 18.4273L11.4571 16.5546ZM7.08206 16.7322C5.64234 16.3221 4.37225 15.4612 3.45777 14.2759L1.87426 15.4976C3.04995 17.0215 4.68296 18.1283 6.53415 18.6556L7.08206 16.7322ZM3.45777 14.2759C2.54335 13.0906 2.03309 11.6434 2.00173 10.1466L0.00217181 10.1885C0.0424799 12.1128 0.698504 13.9736 1.87426 15.4976L3.45777 14.2759ZM2.00173 10.1466C1.97038 8.6498 2.41954 7.18244 3.28351 5.95996L1.65023 4.80567C0.539306 6.37758 -0.0381356 8.26421 0.00217181 10.1885L2.00173 10.1466ZM3.28351 5.95996C4.14753 4.7374 5.38066 3.82409 6.80198 3.35403L6.174 1.45518C4.34656 2.05954 2.7611 3.23382 1.65023 4.80567L3.28351 5.95996ZM6.80198 3.35403C8.22332 2.88397 9.7582 2.88195 11.1808 3.34829L11.8038 1.4478C9.97476 0.848223 8.00143 0.850813 6.174 1.45518L6.80198 3.35403ZM11.1808 3.34829C12.6033 3.81462 13.8388 4.72475 14.706 5.94506L16.3363 4.7865C15.2213 3.21758 13.6328 2.04739 11.8038 1.4478L11.1808 3.34829Z" fill="#14181F"/>
</svg>
