<svg width="22" height="17" viewBox="0 0 22 17" fill="none" xmlns="http://www.w3.org/2000/svg">
<path d="M3.35551 5.09156L4.25355 5.53148L3.35551 5.09156ZM3.84017 4.5873L4.30845 5.47088L3.84017 4.5873ZM4.44574 15.7484L4.91402 14.8649H4.91402L4.44574 15.7484ZM3.47642 14.74L2.57838 15.1799L3.47642 14.74ZM18.5234 14.74L17.6253 14.3001L18.5234 14.74ZM17.5533 15.7484L17.0851 14.8649L17.5533 15.7484ZM18.6436 5.09156L17.7456 5.53148L18.6436 5.09156ZM18.1597 4.5873L18.628 3.70372V3.70372L18.1597 4.5873ZM8.78115 9.23077C8.22886 9.23077 7.78115 9.67848 7.78115 10.2308C7.78115 10.7831 8.22886 11.2308 8.78115 11.2308V9.23077ZM13.2184 11.2308C13.7707 11.2308 14.2184 10.7831 14.2184 10.2308C14.2184 9.67848 13.7707 9.23077 13.2184 9.23077V11.2308ZM1.87288 1.70056L2.68744 2.28064L1.87288 1.70056ZM2.216 1.27128L1.55707 0.51907V0.51907L2.216 1.27128ZM2.67453 1.03126L2.43457 0.060479L2.67453 1.03126ZM1.52731 4.29012L0.987828 5.13212H0.987828L1.52731 4.29012ZM1.00407 3.20922L0.00744116 3.12714L1.00407 3.20922ZM20.1267 1.70059L19.3121 2.28067V2.28067L20.1267 1.70059ZM20.9959 3.20922L19.9993 3.29131L20.9959 3.20922ZM20.4728 4.29012L19.9333 3.44812V3.44812L20.4728 4.29012ZM19.7832 1.27128L20.4422 0.519071L20.4422 0.51907L19.7832 1.27128ZM19.3257 1.03126L19.0858 2.00205L19.3257 1.03126ZM17.7649 6.30766V12.3077H19.7649V6.30766H17.7649ZM15.2154 15H6.78461V17H15.2154V15ZM4.2346 12.3077V6.30766H2.2346V12.3077H4.2346ZM5.00906 5.46154H16.9896V3.46154H5.00906V5.46154ZM4.2346 6.30766C4.2346 5.96869 4.23532 5.7723 4.24664 5.62815C4.25714 5.49459 4.27193 5.49396 4.25355 5.53148L2.45747 4.65165C2.31819 4.93598 2.27252 5.2203 2.25279 5.47153C2.23388 5.71218 2.2346 6.00043 2.2346 6.30766H4.2346ZM5.00906 3.46154C4.7156 3.46154 4.433 3.4607 4.19591 3.48085C3.94585 3.50211 3.65833 3.55191 3.37189 3.70372L4.30845 5.47088C4.25931 5.49693 4.24559 5.48384 4.36534 5.47366C4.49806 5.46238 4.68126 5.46154 5.00906 5.46154V3.46154ZM4.25355 5.53148C4.26952 5.49888 4.29108 5.48009 4.30845 5.47088L3.37189 3.70372C2.9718 3.91576 2.65421 4.25002 2.45747 4.65165L4.25355 5.53148ZM6.78461 15C6.14621 15 5.72979 14.9992 5.41187 14.9721C5.10676 14.9462 4.9834 14.9016 4.91402 14.8649L3.97746 16.632C4.38268 16.8468 4.80747 16.928 5.24252 16.965C5.66474 17.0008 6.18047 17 6.78461 17V15ZM2.2346 12.3077C2.2346 12.938 2.23388 13.4686 2.2679 13.9017C2.30275 14.3453 2.37863 14.7721 2.57838 15.1799L4.37446 14.3001C4.33238 14.2142 4.28736 14.0711 4.26176 13.7451C4.23532 13.4085 4.2346 12.9697 4.2346 12.3077H2.2346ZM4.91402 14.8649C4.68788 14.745 4.49676 14.5497 4.37446 14.3001L2.57838 15.1799C2.88149 15.7987 3.36868 16.3094 3.97746 16.632L4.91402 14.8649ZM17.7649 12.3077C17.7649 12.9698 17.7643 13.4086 17.7379 13.7452C17.7123 14.0713 17.6673 14.2143 17.6253 14.3001L19.4214 15.1799C19.6212 14.772 19.697 14.3451 19.7318 13.9015C19.7657 13.4685 19.7649 12.9379 19.7649 12.3077H17.7649ZM15.2154 17C15.8195 17 16.335 17.0008 16.7571 16.9649C17.192 16.928 17.6165 16.8467 18.0216 16.632L17.0851 14.8649C17.0156 14.9017 16.8923 14.9462 16.5876 14.9721C16.2699 14.9991 15.8538 15 15.2154 15V17ZM17.6253 14.3001C17.5034 14.549 17.3118 14.7447 17.0851 14.8649L18.0216 16.632C18.6297 16.3097 19.118 15.7993 19.4214 15.1799L17.6253 14.3001ZM19.7649 6.30766C19.7649 6.00008 19.7656 5.71186 19.7465 5.47098C19.7266 5.21957 19.6807 4.93559 19.5416 4.65165L17.7456 5.53148C17.7274 5.49435 17.7422 5.49532 17.7527 5.6287C17.7641 5.77262 17.7649 5.96903 17.7649 6.30766H19.7649ZM16.9896 5.46154C17.3174 5.46154 17.5009 5.46238 17.6341 5.47368C17.7545 5.4839 17.7409 5.49709 17.6914 5.47088L18.628 3.70372C18.3412 3.55175 18.0531 3.50206 17.8032 3.48084C17.5659 3.4607 17.2831 3.46154 16.9896 3.46154V5.46154ZM19.5416 4.65165C19.3456 4.25146 19.0294 3.91649 18.628 3.70372L17.6914 5.47088C17.7074 5.47936 17.7289 5.49745 17.7456 5.53148L19.5416 4.65165ZM8.78115 11.2308H13.2184V9.23077H8.78115V11.2308ZM18.7893 3.46154H3.20969V5.46154H18.7893V3.46154ZM3.20969 2H18.7892V0H3.20969V2ZM2.68744 2.28064C2.77359 2.15967 2.81988 2.09505 2.8562 2.04855C2.88739 2.00861 2.88935 2.01084 2.87492 2.02349L1.55707 0.51907C1.34898 0.701353 1.19241 0.932188 1.05833 1.12047L2.68744 2.28064ZM3.20969 0C2.98667 0 2.70696 -0.00684857 2.43457 0.060479L2.91449 2.00205C2.89233 2.00752 2.8877 2.00497 2.93374 2.00282C2.98901 2.00025 3.06429 2 3.20969 2V0ZM2.87492 2.02349C2.88852 2.01157 2.90252 2.005 2.91449 2.00205L2.43457 0.060479C2.10927 0.140887 1.80862 0.29871 1.55707 0.51907L2.87492 2.02349ZM3.20969 3.46154C2.7207 3.46154 2.41439 3.46078 2.19433 3.44327C1.96199 3.42478 1.98458 3.39545 2.06678 3.44812L0.987828 5.13212C1.33759 5.35622 1.72959 5.4126 2.03565 5.43696C2.354 5.4623 2.75511 5.46154 3.20969 5.46154V3.46154ZM1.05833 1.12047C0.786794 1.50176 0.549743 1.83362 0.38189 2.11158C0.219946 2.37976 0.0406005 2.72455 0.00744116 3.12714L2.00069 3.29131C1.99436 3.36824 1.9686 3.35301 2.09395 3.14544C2.21339 2.94764 2.39733 2.68801 2.68744 2.28064L1.05833 1.12047ZM2.06678 3.44812C2.03295 3.42645 1.9942 3.37014 2.00069 3.29131L0.00744116 3.12714C-0.0575948 3.91675 0.308181 4.69667 0.987828 5.13212L2.06678 3.44812ZM19.3121 2.28067C19.6023 2.6882 19.7864 2.94783 19.906 3.14577C20.0316 3.35357 20.0057 3.36858 19.9993 3.29131L21.9926 3.12714C21.9594 2.7242 21.7796 2.37922 21.6177 2.11128C21.4498 1.83347 21.2126 1.50162 20.9412 1.1205L19.3121 2.28067ZM18.7893 5.46154C19.2439 5.46154 19.6452 5.4623 19.9638 5.43697C20.2698 5.41264 20.6623 5.35634 21.0122 5.13212L19.9333 3.44812C20.0157 3.39533 20.0382 3.42474 19.8052 3.44326C19.5849 3.46078 19.2782 3.46154 18.7893 3.46154V5.46154ZM19.9993 3.29131C20.0058 3.37023 19.967 3.4265 19.9333 3.44812L21.0122 5.13212C21.692 4.69662 22.0576 3.91665 21.9926 3.12714L19.9993 3.29131ZM20.9412 1.1205C20.8064 0.931149 20.65 0.701141 20.4422 0.519071L19.1243 2.02349C19.1102 2.01112 19.1124 2.00917 19.1436 2.04906C19.1798 2.09539 19.2262 2.16006 19.3121 2.28067L20.9412 1.1205ZM18.7892 2C18.9346 2 19.0103 2.00025 19.066 2.00283C19.1129 2.00501 19.1084 2.00763 19.0858 2.00205L19.5657 0.0604791C19.2932 -0.0068711 19.0119 0 18.7892 0V2ZM20.4422 0.51907C20.192 0.299939 19.8928 0.141328 19.5657 0.0604791L19.0858 2.00205C19.0959 2.00456 19.1093 2.01034 19.1243 2.02349L20.4422 0.51907Z" fill="#CCCCCC"/>
</svg>
