<svg width="17" height="19" viewBox="0 0 17 19" fill="none" xmlns="http://www.w3.org/2000/svg">
<path d="M6 7C6.55228 7 7 6.55228 7 6C7 5.44772 6.55228 5 6 5V7ZM1 6H0C0 6.55228 0.447715 7 1 7L1 6ZM2 1C2 0.447715 1.55228 0 1 0C0.447715 0 0 0.447715 0 1H2ZM2.12969 13.8125C1.82889 13.3493 1.20956 13.2177 0.746377 13.5184C0.283192 13.8192 0.151549 14.4386 0.452345 14.9018L2.12969 13.8125ZM10.1923 17.6939L9.91829 16.7322H9.91829L10.1923 17.6939ZM14.5337 5.38281L15.3503 4.80567L14.5337 5.38281ZM0.664364 4.7865C0.344436 5.23668 0.450028 5.86098 0.900211 6.1809C1.35039 6.50083 1.97469 6.39524 2.29462 5.94506L0.664364 4.7865ZM6 5H1V7H6V5ZM2 6V1H0V6H2ZM0.452345 14.9018C1.50065 16.516 3.03887 17.7517 4.84116 18.4273L5.54321 16.5546C4.14142 16.0291 2.94504 15.068 2.12969 13.8125L0.452345 14.9018ZM4.84116 18.4273C6.64347 19.1029 8.61509 19.183 10.4662 18.6556L9.91829 16.7322C8.47851 17.1423 6.94498 17.0801 5.54321 16.5546L4.84116 18.4273ZM10.4662 18.6556C12.3174 18.1283 13.9504 17.0215 15.126 15.4976L13.5425 14.2759C12.628 15.4612 11.358 16.3221 9.91829 16.7322L10.4662 18.6556ZM15.126 15.4976C16.3017 13.9737 16.9581 12.1129 16.9984 10.1885L14.9989 10.1466C14.9675 11.6432 14.457 13.0905 13.5425 14.2759L15.126 15.4976ZM16.9984 10.1885C17.0388 8.26419 16.4612 6.37757 15.3503 4.80567L13.717 5.95996C14.581 7.18246 15.0302 8.64982 14.9989 10.1466L16.9984 10.1885ZM15.3503 4.80567C14.2394 3.23375 12.6536 2.05951 10.8262 1.45518L10.1982 3.35403C11.6196 3.82411 12.8531 4.73747 13.717 5.95996L15.3503 4.80567ZM10.8262 1.45518C8.99877 0.850813 7.0258 0.848223 5.19679 1.4478L5.81981 3.34829C7.24236 2.88195 8.77688 2.88397 10.1982 3.35403L10.8262 1.45518ZM5.19679 1.4478C3.36774 2.0474 1.77932 3.2176 0.664364 4.7865L2.29462 5.94506C3.16186 4.72473 4.39729 3.81461 5.81981 3.34829L5.19679 1.4478Z" fill="#14181F"/>
</svg>
